<svg width="19" height="18" viewBox="0 0 19 18" fill="none" xmlns="http://www.w3.org/2000/svg">
<path d="M2.35938 18C1.80938 18 1.33837 17.8043 0.946375 17.413C0.555042 17.021 0.359375 16.55 0.359375 16V2C0.359375 1.45 0.555042 0.979 0.946375 0.587C1.33837 0.195667 1.80938 0 2.35938 0H11.3594V2H2.35938V16H16.3594V7H18.3594V16C18.3594 16.55 18.1637 17.021 17.7724 17.413C17.3804 17.8043 16.9094 18 16.3594 18H2.35938ZM4.35938 14H6.35938V7H4.35938V14ZM8.35938 14H10.3594V4H8.35938V14ZM12.3594 14H14.3594V10H12.3594V14ZM14.3594 6V4H12.3594V2H14.3594V0H16.3594V2H18.3594V4H16.3594V6H14.3594Z" fill="#979797"/>
</svg>
