<svg width="22" height="23" viewBox="0 0 22 23" fill="none" xmlns="http://www.w3.org/2000/svg">
<path d="M1 5.12181C1 4.06813 1.42143 3.05762 2.17157 2.31256C2.92172 1.5675 3.93913 1.14893 5 1.14893H17C18.0609 1.14893 19.0783 1.5675 19.8284 2.31256C20.5786 3.05762 21 4.06813 21 5.12181V17.0404C21 18.0941 20.5786 19.1046 19.8284 19.8497C19.0783 20.5948 18.0609 21.0133 17 21.0133H5C3.93913 21.0133 2.92172 20.5948 2.17157 19.8497C1.42143 19.1046 1 18.0941 1 17.0404V5.12181Z" stroke="#BFBFBF" stroke-width="2" stroke-linecap="round" stroke-linejoin="round"/>
<path d="M7.5 10.0877C8.88071 10.0877 10 8.97598 10 7.60463C10 6.23328 8.88071 5.12158 7.5 5.12158C6.11929 5.12158 5 6.23328 5 7.60463C5 8.97598 6.11929 10.0877 7.5 10.0877Z" stroke="#BFBFBF" stroke-width="2" stroke-linecap="round" stroke-linejoin="round"/>
<path d="M13.526 11.6979L5 21.0133H17.133C18.1586 21.0133 19.1422 20.6087 19.8674 19.8884C20.5926 19.1681 21 18.1912 21 17.1725V17.0404C21 16.5776 20.825 16.3998 20.51 16.0572L16.48 11.692C16.2922 11.4885 16.0637 11.3261 15.8092 11.2152C15.5546 11.1043 15.2796 11.0473 15.0017 11.0479C14.7237 11.0484 14.449 11.1065 14.1949 11.2184C13.9408 11.3304 13.713 11.4937 13.526 11.6979V11.6979Z" stroke="#BFBFBF" stroke-width="2" stroke-linecap="round" stroke-linejoin="round"/>
</svg>
