<svg width="20" height="20" viewBox="0 0 20 20" fill="none" xmlns="http://www.w3.org/2000/svg">
<path d="M8.6 14.5995L15.65 7.54951L14.25 6.14951L8.6 11.7995L5.75 8.94951L4.35 10.3495L8.6 14.5995ZM10 19.9995C8.61667 19.9995 7.31667 19.7368 6.1 19.2115C4.88333 18.6868 3.825 17.9745 2.925 17.0745C2.025 16.1745 1.31267 15.1162 0.788 13.8995C0.262667 12.6828 0 11.3828 0 9.99951C0 8.61618 0.262667 7.31618 0.788 6.09951C1.31267 4.88285 2.025 3.82451 2.925 2.92451C3.825 2.02451 4.88333 1.31185 6.1 0.786512C7.31667 0.261845 8.61667 -0.000488281 10 -0.000488281C11.3833 -0.000488281 12.6833 0.261845 13.9 0.786512C15.1167 1.31185 16.175 2.02451 17.075 2.92451C17.975 3.82451 18.6873 4.88285 19.212 6.09951C19.7373 7.31618 20 8.61618 20 9.99951C20 11.3828 19.7373 12.6828 19.212 13.8995C18.6873 15.1162 17.975 16.1745 17.075 17.0745C16.175 17.9745 15.1167 18.6868 13.9 19.2115C12.6833 19.7368 11.3833 19.9995 10 19.9995Z" fill="#979797"/>
</svg>
