<svg width="25" height="25" viewBox="0 0 25 25" fill="none" xmlns="http://www.w3.org/2000/svg">
<rect width="25" height="25" rx="3" fill="#F8F8F8"/>
<path d="M6.21326 19.0897C6.45744 19.3338 6.78857 19.4709 7.13384 19.4709C7.4791 19.4709 7.81023 19.3338 8.05441 19.0897L12.6586 14.4855L17.2627 19.0897C17.5083 19.3269 17.8372 19.4581 18.1786 19.4552C18.52 19.4522 18.8466 19.3153 19.088 19.0739C19.3294 18.8324 19.4664 18.5059 19.4693 18.1645C19.4723 17.8231 19.3411 17.4941 19.1039 17.2486L14.4997 12.6444L19.1039 8.04024C19.3411 7.79466 19.4723 7.46575 19.4693 7.12435C19.4664 6.78295 19.3294 6.45637 19.088 6.21495C18.8466 5.97353 18.52 5.8366 18.1786 5.83363C17.8372 5.83066 17.5083 5.9619 17.2627 6.19909L12.6586 10.8033L8.05441 6.19909C7.80883 5.9619 7.47992 5.83066 7.13852 5.83363C6.79712 5.8366 6.47054 5.97353 6.22912 6.21495C5.98771 6.45637 5.85077 6.78295 5.8478 7.12435C5.84484 7.46575 5.97608 7.79466 6.21326 8.04024L10.8174 12.6444L6.21326 17.2486C5.96916 17.4927 5.83203 17.8239 5.83203 18.1691C5.83203 18.5144 5.96916 18.8455 6.21326 19.0897Z" fill="#979797"/>
</svg>
