<svg width="14" height="8" viewBox="0 0 14 8" fill="none" xmlns="http://www.w3.org/2000/svg">
<path d="M0.636002 0.292787C0.82353 0.105316 1.07784 0 1.343 0C1.60817 0 1.86247 0.105316 2.05 0.292787L7 5.24279L11.95 0.292787C12.1386 0.110629 12.3912 0.00983372 12.6534 0.0121121C12.9156 0.0143906 13.1664 0.11956 13.3518 0.304968C13.5372 0.490376 13.6424 0.741188 13.6447 1.00338C13.647 1.26558 13.5462 1.51818 13.364 1.70679L7.707 7.36379C7.51947 7.55126 7.26517 7.65657 7 7.65657C6.73484 7.65657 6.48053 7.55126 6.293 7.36379L0.636002 1.70679C0.448531 1.51926 0.343216 1.26495 0.343216 0.999786C0.343216 0.734622 0.448531 0.480314 0.636002 0.292787Z" fill="#9D9D9D"/>
</svg>
