<svg width="19" height="16" viewBox="0 0 19 16" fill="none" xmlns="http://www.w3.org/2000/svg">
<path d="M1.85938 15.5C1.44271 15.5 1.08871 15.354 0.797375 15.062C0.505375 14.7707 0.359375 14.4167 0.359375 14C0.359375 13.5833 0.505375 13.2293 0.797375 12.938C1.08871 12.646 1.44271 12.5 1.85938 12.5C2.27604 12.5 2.63004 12.646 2.92137 12.938C3.21337 13.2293 3.35938 13.5833 3.35938 14C3.35938 14.4167 3.21337 14.7707 2.92137 15.062C2.63004 15.354 2.27604 15.5 1.85938 15.5ZM5.35938 15V13H18.3594V15H5.35938ZM1.85938 9.5C1.44271 9.5 1.08871 9.354 0.797375 9.062C0.505375 8.77067 0.359375 8.41667 0.359375 8C0.359375 7.58333 0.505375 7.22933 0.797375 6.938C1.08871 6.646 1.44271 6.5 1.85938 6.5C2.27604 6.5 2.63004 6.646 2.92137 6.938C3.21337 7.22933 3.35938 7.58333 3.35938 8C3.35938 8.41667 3.21337 8.77067 2.92137 9.062C2.63004 9.354 2.27604 9.5 1.85938 9.5ZM5.35938 9V7H18.3594V9H5.35938ZM1.85938 3.5C1.44271 3.5 1.08871 3.354 0.797375 3.062C0.505375 2.77067 0.359375 2.41667 0.359375 2C0.359375 1.58333 0.505375 1.22933 0.797375 0.938C1.08871 0.646 1.44271 0.5 1.85938 0.5C2.27604 0.5 2.63004 0.646 2.92137 0.938C3.21337 1.22933 3.35938 1.58333 3.35938 2C3.35938 2.41667 3.21337 2.77067 2.92137 3.062C2.63004 3.354 2.27604 3.5 1.85938 3.5ZM5.35938 3V1H18.3594V3H5.35938Z" fill="#979797"/>
</svg>
