<svg width="19" height="18" viewBox="0 0 19 18" fill="none" xmlns="http://www.w3.org/2000/svg">
<path d="M2.35938 8C1.80938 8 1.33837 7.804 0.946375 7.412C0.555042 7.02067 0.359375 6.55 0.359375 6V2C0.359375 1.45 0.555042 0.979 0.946375 0.587C1.33837 0.195667 1.80938 0 2.35938 0H6.35938C6.90938 0 7.38037 0.195667 7.77238 0.587C8.16371 0.979 8.35938 1.45 8.35938 2V6C8.35938 6.55 8.16371 7.02067 7.77238 7.412C7.38037 7.804 6.90938 8 6.35938 8H2.35938ZM2.35938 18C1.80938 18 1.33837 17.8043 0.946375 17.413C0.555042 17.021 0.359375 16.55 0.359375 16V12C0.359375 11.45 0.555042 10.979 0.946375 10.587C1.33837 10.1957 1.80938 10 2.35938 10H6.35938C6.90938 10 7.38037 10.1957 7.77238 10.587C8.16371 10.979 8.35938 11.45 8.35938 12V16C8.35938 16.55 8.16371 17.021 7.77238 17.413C7.38037 17.8043 6.90938 18 6.35938 18H2.35938ZM12.3594 8C11.8094 8 11.3387 7.804 10.9474 7.412C10.5554 7.02067 10.3594 6.55 10.3594 6V2C10.3594 1.45 10.5554 0.979 10.9474 0.587C11.3387 0.195667 11.8094 0 12.3594 0H16.3594C16.9094 0 17.3804 0.195667 17.7724 0.587C18.1637 0.979 18.3594 1.45 18.3594 2V6C18.3594 6.55 18.1637 7.02067 17.7724 7.412C17.3804 7.804 16.9094 8 16.3594 8H12.3594ZM12.3594 18C11.8094 18 11.3387 17.8043 10.9474 17.413C10.5554 17.021 10.3594 16.55 10.3594 16V12C10.3594 11.45 10.5554 10.979 10.9474 10.587C11.3387 10.1957 11.8094 10 12.3594 10H16.3594C16.9094 10 17.3804 10.1957 17.7724 10.587C18.1637 10.979 18.3594 11.45 18.3594 12V16C18.3594 16.55 18.1637 17.021 17.7724 17.413C17.3804 17.8043 16.9094 18 16.3594 18H12.3594ZM2.35938 6H6.35938V2H2.35938V6ZM12.3594 6H16.3594V2H12.3594V6ZM12.3594 16H16.3594V12H12.3594V16ZM2.35938 16H6.35938V12H2.35938V16Z" fill="#979797"/>
</svg>
