<svg width="20" height="20" viewBox="0 0 20 20" fill="none" xmlns="http://www.w3.org/2000/svg">
<path d="M8.35938 20H2.35938C1.80938 20 1.33837 19.8043 0.946375 19.413C0.555042 19.021 0.359375 18.55 0.359375 18V4C0.359375 3.45 0.555042 2.979 0.946375 2.587C1.33837 2.19567 1.80938 2 2.35938 2H6.53438C6.71771 1.41667 7.07604 0.937333 7.60938 0.562C8.14271 0.187333 8.72604 0 9.35938 0C10.026 0 10.622 0.187333 11.1474 0.562C11.672 0.937333 12.026 1.41667 12.2094 2H16.3594C16.9094 2 17.3804 2.19567 17.7724 2.587C18.1637 2.979 18.3594 3.45 18.3594 4V9H16.3594V4H14.3594V5C14.3594 5.55 14.1637 6.02067 13.7724 6.412C13.3804 6.804 12.9094 7 12.3594 7H6.35938C5.80937 7 5.33871 6.804 4.94737 6.412C4.55537 6.02067 4.35938 5.55 4.35938 5V4H2.35938V18H8.35938V20ZM12.8594 16.125L17.8094 11.175C17.9927 10.9917 18.226 10.9 18.5094 10.9C18.7927 10.9 19.026 10.9917 19.2094 11.175C19.3927 11.3583 19.4844 11.5917 19.4844 11.875C19.4844 12.1583 19.3927 12.3917 19.2094 12.575L13.5594 18.225C13.3594 18.425 13.126 18.525 12.8594 18.525C12.5927 18.525 12.3594 18.425 12.1594 18.225L9.30937 15.375C9.12604 15.1917 9.03438 14.9583 9.03438 14.675C9.03438 14.3917 9.12604 14.1583 9.30937 13.975C9.49271 13.7917 9.72604 13.7 10.0094 13.7C10.2927 13.7 10.526 13.7917 10.7094 13.975L12.8594 16.125ZM9.35938 4C9.64271 4 9.88037 3.904 10.0724 3.712C10.2637 3.52067 10.3594 3.28333 10.3594 3C10.3594 2.71667 10.2637 2.479 10.0724 2.287C9.88037 2.09567 9.64271 2 9.35938 2C9.07604 2 8.83871 2.09567 8.64738 2.287C8.45537 2.479 8.35938 2.71667 8.35938 3C8.35938 3.28333 8.45537 3.52067 8.64738 3.712C8.83871 3.904 9.07604 4 9.35938 4Z" fill="#979797"/>
</svg>
