<svg width="23" height="16" viewBox="0 0 23 16" fill="none" xmlns="http://www.w3.org/2000/svg">
<path d="M5.35938 16C4.52604 16 3.81771 15.7083 3.23438 15.125C2.65104 14.5417 2.35938 13.8333 2.35938 13H0.359375V2C0.359375 1.45 0.555375 0.979333 0.947375 0.588C1.33871 0.196 1.80938 0 2.35938 0H16.3594V4H19.3594L22.3594 8V13H20.3594C20.3594 13.8333 20.0677 14.5417 19.4844 15.125C18.901 15.7083 18.1927 16 17.3594 16C16.526 16 15.8177 15.7083 15.2344 15.125C14.651 14.5417 14.3594 13.8333 14.3594 13H8.35938C8.35938 13.8333 8.06771 14.5417 7.48438 15.125C6.90104 15.7083 6.19271 16 5.35938 16ZM5.35938 14C5.64271 14 5.88037 13.904 6.07237 13.712C6.26371 13.5207 6.35938 13.2833 6.35938 13C6.35938 12.7167 6.26371 12.4793 6.07237 12.288C5.88037 12.096 5.64271 12 5.35938 12C5.07604 12 4.83838 12.096 4.64638 12.288C4.45504 12.4793 4.35938 12.7167 4.35938 13C4.35938 13.2833 4.45504 13.5207 4.64638 13.712C4.83838 13.904 5.07604 14 5.35938 14ZM2.35938 11H3.15937C3.44271 10.7 3.76771 10.4583 4.13438 10.275C4.50104 10.0917 4.90938 10 5.35938 10C5.80937 10 6.21771 10.0917 6.58437 10.275C6.95104 10.4583 7.27604 10.7 7.55937 11H14.3594V2H2.35938V11ZM17.3594 14C17.6427 14 17.88 13.904 18.0714 13.712C18.2634 13.5207 18.3594 13.2833 18.3594 13C18.3594 12.7167 18.2634 12.4793 18.0714 12.288C17.88 12.096 17.6427 12 17.3594 12C17.076 12 16.8387 12.096 16.6474 12.288C16.4554 12.4793 16.3594 12.7167 16.3594 13C16.3594 13.2833 16.4554 13.5207 16.6474 13.712C16.8387 13.904 17.076 14 17.3594 14ZM16.3594 9H20.6094L18.3594 6H16.3594V9Z" fill="#979797"/>
</svg>
