<svg width="18" height="15" viewBox="0 0 18 15" fill="none" xmlns="http://www.w3.org/2000/svg">
<path d="M7.33329 7.00016C6.41663 7.00016 5.6319 6.67377 4.97913 6.021C4.32635 5.36822 3.99996 4.5835 3.99996 3.66683C3.99996 2.75016 4.32635 1.96544 4.97913 1.31266C5.6319 0.659885 6.41663 0.333496 7.33329 0.333496C8.24996 0.333496 9.03468 0.659885 9.68746 1.31266C10.3402 1.96544 10.6666 2.75016 10.6666 3.66683C10.6666 4.5835 10.3402 5.36822 9.68746 6.021C9.03468 6.67377 8.24996 7.00016 7.33329 7.00016ZM0.666626 13.6668V11.3335C0.666626 10.8752 0.784681 10.4446 1.02079 10.0418C1.2569 9.63905 1.58329 9.3335 1.99996 9.12516C2.70829 8.76405 3.5069 8.4585 4.39579 8.2085C5.28468 7.9585 6.26385 7.8335 7.33329 7.8335H7.62496C7.70829 7.8335 7.79163 7.84739 7.87496 7.87516C7.76385 8.12516 7.66996 8.38572 7.59329 8.65683C7.51718 8.92739 7.45829 9.2085 7.41663 9.50016H7.33329C6.34718 9.50016 5.46163 9.62516 4.67663 9.87516C3.89218 10.1252 3.24996 10.3752 2.74996 10.6252C2.62496 10.6946 2.5244 10.7918 2.44829 10.9168C2.37163 11.0418 2.33329 11.1807 2.33329 11.3335V12.0002H7.58329C7.66663 12.2918 7.77774 12.5802 7.91663 12.8652C8.05552 13.1496 8.20829 13.4168 8.37496 13.6668H0.666626ZM12.3333 14.5002L12.0833 13.2502C11.9166 13.1807 11.7602 13.1079 11.6141 13.0318C11.4686 12.9552 11.3194 12.8613 11.1666 12.7502L9.95829 13.1252L9.12496 11.7085L10.0833 10.8752C10.0555 10.6807 10.0416 10.5002 10.0416 10.3335C10.0416 10.1668 10.0555 9.98627 10.0833 9.79183L9.12496 8.9585L9.95829 7.54183L11.1666 7.91683C11.3194 7.80572 11.4686 7.71183 11.6141 7.63516C11.7602 7.55905 11.9166 7.48627 12.0833 7.41683L12.3333 6.16683H14L14.25 7.41683C14.4166 7.48627 14.573 7.56266 14.7191 7.646C14.8647 7.72933 15.0138 7.8335 15.1666 7.9585L16.375 7.54183L17.2083 9.00016L16.25 9.8335C16.2777 10.0002 16.2916 10.1738 16.2916 10.3543C16.2916 10.5349 16.2777 10.7085 16.25 10.8752L17.2083 11.7085L16.375 13.1252L15.1666 12.7502C15.0138 12.8613 14.8647 12.9552 14.7191 13.0318C14.573 13.1079 14.4166 13.1807 14.25 13.2502L14 14.5002H12.3333ZM13.1666 12.0002C13.625 12.0002 14.0175 11.8371 14.3441 11.511C14.6702 11.1843 14.8333 10.7918 14.8333 10.3335C14.8333 9.87516 14.6702 9.48266 14.3441 9.156C14.0175 8.82989 13.625 8.66683 13.1666 8.66683C12.7083 8.66683 12.3161 8.82989 11.99 9.156C11.6633 9.48266 11.5 9.87516 11.5 10.3335C11.5 10.7918 11.6633 11.1843 11.99 11.511C12.3161 11.8371 12.7083 12.0002 13.1666 12.0002ZM7.33329 5.3335C7.79163 5.3335 8.18413 5.17016 8.51079 4.8435C8.8369 4.51739 8.99996 4.12516 8.99996 3.66683C8.99996 3.2085 8.8369 2.81627 8.51079 2.49016C8.18413 2.1635 7.79163 2.00016 7.33329 2.00016C6.87496 2.00016 6.48274 2.1635 6.15663 2.49016C5.82996 2.81627 5.66663 3.2085 5.66663 3.66683C5.66663 4.12516 5.82996 4.51739 6.15663 4.8435C6.48274 5.17016 6.87496 5.3335 7.33329 5.3335Z" fill="#979797"/>
</svg>
