<svg width="20" height="20" viewBox="0 0 20 20" fill="none" xmlns="http://www.w3.org/2000/svg">
<path d="M19.6733 17.5531C19.0305 16.98 18.4676 16.323 18 15.5998C17.4895 14.6015 17.1835 13.5113 17.1 12.3931V9.09977C17.0973 8.69974 17.0616 8.30061 16.9933 7.90644C16.4686 7.80155 15.9643 7.61244 15.5 7.34644C15.677 7.91634 15.7669 8.50969 15.7667 9.10644V12.3998C15.8484 13.7638 16.2236 15.0941 16.8667 16.2998C17.3269 17.0291 17.8731 17.7006 18.4933 18.2998H1.41999C2.04026 17.7006 2.58639 17.0291 3.04666 16.2998C3.68973 15.0941 4.06495 13.7638 4.14666 12.3998V9.09977C4.14315 8.32823 4.29186 7.56357 4.58429 6.84959C4.87671 6.1356 5.3071 5.4863 5.8508 4.93888C6.39451 4.39146 7.04086 3.95666 7.75284 3.65938C8.46482 3.3621 9.22844 3.20818 9.99999 3.20644C11.1292 3.20734 12.233 3.54127 13.1733 4.16644C13.0697 3.78576 13.0115 3.39414 13 2.99977V2.57977C12.3039 2.23735 11.5561 2.0121 10.7867 1.91311V1.07311C10.7867 0.837063 10.6929 0.610688 10.526 0.443781C10.3591 0.276873 10.1327 0.183105 9.89666 0.183105C9.66062 0.183105 9.43424 0.276873 9.26733 0.443781C9.10043 0.610688 9.00666 0.837063 9.00666 1.07311V1.94644C7.2838 2.18947 5.70704 3.0476 4.56747 4.36239C3.4279 5.67719 2.80248 7.35986 2.80666 9.09977V12.3931C2.72316 13.5113 2.41718 14.6015 1.90666 15.5998C1.44725 16.3213 0.893455 16.9783 0.259992 17.5531C0.18888 17.6156 0.131886 17.6925 0.0928035 17.7787C0.0537209 17.8649 0.0334451 17.9585 0.0333252 18.0531V18.9598C0.0333252 19.1366 0.103563 19.3062 0.228587 19.4312C0.353612 19.5562 0.523181 19.6264 0.699992 19.6264H19.2333C19.4101 19.6264 19.5797 19.5562 19.7047 19.4312C19.8298 19.3062 19.9 19.1366 19.9 18.9598V18.0531C19.8999 17.9585 19.8796 17.8649 19.8405 17.7787C19.8014 17.6925 19.7444 17.6156 19.6733 17.5531Z" fill="#979797"/>
</svg>
