<svg width="17" height="17" viewBox="0 0 17 17" fill="none" xmlns="http://www.w3.org/2000/svg">
<path d="M8.35938 8.16992C7.25937 8.16992 6.31771 7.77826 5.53438 6.99492C4.75104 6.21159 4.35938 5.26992 4.35938 4.16992C4.35938 3.06992 4.75104 2.12826 5.53438 1.34492C6.31771 0.561589 7.25937 0.169922 8.35938 0.169922C9.45938 0.169922 10.401 0.561589 11.1844 1.34492C11.9677 2.12826 12.3594 3.06992 12.3594 4.16992C12.3594 5.26992 11.9677 6.21159 11.1844 6.99492C10.401 7.77826 9.45938 8.16992 8.35938 8.16992ZM14.3594 16.1699H2.35938C1.80937 16.1699 1.33871 15.9743 0.947375 15.5829C0.555375 15.1909 0.359375 14.7199 0.359375 14.1699V13.3699C0.359375 12.8033 0.505375 12.2823 0.797375 11.8069C1.08871 11.3323 1.47604 10.9699 1.95937 10.7199C2.99271 10.2033 4.04271 9.81559 5.10938 9.55692C6.17604 9.29892 7.25937 9.16992 8.35938 9.16992C9.45938 9.16992 10.5427 9.29892 11.6094 9.55692C12.676 9.81559 13.726 10.2033 14.7594 10.7199C15.2427 10.9699 15.63 11.3323 15.9214 11.8069C16.2134 12.2823 16.3594 12.8033 16.3594 13.3699V14.1699C16.3594 14.7199 16.1637 15.1909 15.7724 15.5829C15.3804 15.9743 14.9094 16.1699 14.3594 16.1699ZM2.35938 14.1699H14.3594V13.3699C14.3594 13.1866 14.3137 13.0199 14.2224 12.8699C14.1304 12.7199 14.0094 12.6033 13.8594 12.5199C12.9594 12.0699 12.051 11.7323 11.1344 11.5069C10.2177 11.2823 9.29271 11.1699 8.35938 11.1699C7.42604 11.1699 6.50104 11.2823 5.58438 11.5069C4.66771 11.7323 3.75937 12.0699 2.85938 12.5199C2.70937 12.6033 2.58871 12.7199 2.49738 12.8699C2.40538 13.0199 2.35938 13.1866 2.35938 13.3699V14.1699ZM8.35938 6.16992C8.90938 6.16992 9.38038 5.97392 9.77238 5.58192C10.1637 5.19059 10.3594 4.71992 10.3594 4.16992C10.3594 3.61992 10.1637 3.14926 9.77238 2.75792C9.38038 2.36592 8.90938 2.16992 8.35938 2.16992C7.80937 2.16992 7.33871 2.36592 6.94738 2.75792C6.55538 3.14926 6.35938 3.61992 6.35938 4.16992C6.35938 4.71992 6.55538 5.19059 6.94738 5.58192C7.33871 5.97392 7.80937 6.16992 8.35938 6.16992Z" fill="#979797"/>
</svg>
