<svg width="20" height="14" viewBox="0 0 20 14" fill="none" xmlns="http://www.w3.org/2000/svg">
<path d="M14.3594 14C14.076 14 13.8387 13.904 13.6474 13.712C13.4554 13.5207 13.3594 13.2833 13.3594 13V10H10.3594C10.076 10 9.83871 9.904 9.64738 9.712C9.45537 9.52067 9.35938 9.28333 9.35938 9C9.35938 8.71667 9.45537 8.479 9.64738 8.287C9.83871 8.09567 10.076 8 10.3594 8H13.3594V5C13.3594 4.71667 13.4554 4.479 13.6474 4.287C13.8387 4.09567 14.076 4 14.3594 4C14.6427 4 14.88 4.09567 15.0714 4.287C15.2634 4.479 15.3594 4.71667 15.3594 5V8H18.3594C18.6427 8 18.88 8.09567 19.0714 8.287C19.2634 8.479 19.3594 8.71667 19.3594 9C19.3594 9.28333 19.2634 9.52067 19.0714 9.712C18.88 9.904 18.6427 10 18.3594 10H15.3594V13C15.3594 13.2833 15.2634 13.5207 15.0714 13.712C14.88 13.904 14.6427 14 14.3594 14ZM1.35938 10C1.07604 10 0.838708 9.904 0.647375 9.712C0.455375 9.52067 0.359375 9.28333 0.359375 9C0.359375 8.71667 0.455375 8.479 0.647375 8.287C0.838708 8.09567 1.07604 8 1.35938 8H6.35938C6.64271 8 6.88038 8.09567 7.07238 8.287C7.26371 8.479 7.35938 8.71667 7.35938 9C7.35938 9.28333 7.26371 9.52067 7.07238 9.712C6.88038 9.904 6.64271 10 6.35938 10H1.35938ZM1.35938 6C1.07604 6 0.838708 5.904 0.647375 5.712C0.455375 5.52067 0.359375 5.28333 0.359375 5C0.359375 4.71667 0.455375 4.479 0.647375 4.287C0.838708 4.09567 1.07604 4 1.35938 4H10.3594C10.6427 4 10.8804 4.09567 11.0724 4.287C11.2637 4.479 11.3594 4.71667 11.3594 5C11.3594 5.28333 11.2637 5.52067 11.0724 5.712C10.8804 5.904 10.6427 6 10.3594 6H1.35938ZM1.35938 2C1.07604 2 0.838708 1.90433 0.647375 1.713C0.455375 1.521 0.359375 1.28333 0.359375 1C0.359375 0.716667 0.455375 0.479 0.647375 0.287C0.838708 0.0956668 1.07604 0 1.35938 0H10.3594C10.6427 0 10.8804 0.0956668 11.0724 0.287C11.2637 0.479 11.3594 0.716667 11.3594 1C11.3594 1.28333 11.2637 1.521 11.0724 1.713C10.8804 1.90433 10.6427 2 10.3594 2H1.35938Z" fill="#979797"/>
</svg>
