<svg width="121" height="121" viewBox="0 0 121 121" fill="none" xmlns="http://www.w3.org/2000/svg">
<circle cx="60.5" cy="60.5" r="60.5" fill="#D9D9D9"/>
<path d="M26.75 40.25C26.75 36.6696 28.1723 33.2358 30.7041 30.7041C33.2358 28.1723 36.6696 26.75 40.25 26.75H80.75C84.3304 26.75 87.7642 28.1723 90.2959 30.7041C92.8277 33.2358 94.25 36.6696 94.25 40.25V80.75C94.25 84.3304 92.8277 87.7642 90.2959 90.2959C87.7642 92.8277 84.3304 94.25 80.75 94.25H40.25C36.6696 94.25 33.2358 92.8277 30.7041 90.2959C28.1723 87.7642 26.75 84.3304 26.75 80.75V40.25Z" stroke="#BFBFBF" stroke-width="2" stroke-linecap="round" stroke-linejoin="round"/>
<path d="M48.6875 57.125C53.3474 57.125 57.125 53.3474 57.125 48.6875C57.125 44.0276 53.3474 40.25 48.6875 40.25C44.0276 40.25 40.25 44.0276 40.25 48.6875C40.25 53.3474 44.0276 57.125 48.6875 57.125Z" stroke="#BFBFBF" stroke-width="2" stroke-linecap="round" stroke-linejoin="round"/>
<path d="M69.0253 62.5957L40.25 94.2498H81.1989C84.6602 94.2498 87.9799 92.8748 90.4274 90.4272C92.875 87.9796 94.25 84.66 94.25 81.1987V80.7498C94.25 79.177 93.6594 78.5729 92.5963 77.4085L78.995 62.5754C78.3611 61.8839 77.59 61.3322 76.731 60.9553C75.8719 60.5785 74.9437 60.3848 74.0057 60.3867C73.0676 60.3886 72.1402 60.5861 71.2827 60.9664C70.4252 61.3467 69.6563 61.9016 69.0253 62.5957V62.5957Z" stroke="#BFBFBF" stroke-width="2" stroke-linecap="round" stroke-linejoin="round"/>
</svg>
