<svg width="14" height="9" viewBox="0 0 14 9" fill="none" xmlns="http://www.w3.org/2000/svg">
<path d="M13.4139 7.71493C13.2272 7.90327 12.9734 8.00978 12.7082 8.01101C12.4431 8.01225 12.1883 7.90812 11.9999 7.72153L7.02683 2.79468L2.09998 7.76772C1.91223 7.95076 1.6601 8.05273 1.3979 8.05167C1.13569 8.05062 0.884392 7.94662 0.698121 7.76208C0.51185 7.57754 0.405513 7.32722 0.402011 7.06504C0.398509 6.80285 0.498123 6.54978 0.6794 6.36033L6.30994 0.677C6.49659 0.488656 6.75041 0.382155 7.01557 0.380918C7.28073 0.379681 7.53553 0.483809 7.72393 0.670403L13.4073 6.30095C13.5956 6.4876 13.7021 6.74141 13.7033 7.00657C13.7046 7.27173 13.6005 7.52653 13.4139 7.71493Z" fill="#9D9D9D"/>
</svg>
